<svg width="321" height="312" viewBox="0 0 321 312" fill="none" xmlns="http://www.w3.org/2000/svg">
<g opacity="0.4">
<path opacity="0.7" d="M213.995 10.831C213.995 10.831 161.7 -7.7644 110.366 21.8544C59.0315 51.4731 33.1292 110.214 10.8836 157.295C-11.3619 204.376 1.44353 252.259 40.6283 274.094C79.813 295.929 106.464 263.74 161.442 262.17C216.42 260.6 231.199 268.463 276.816 237.407C322.434 206.351 330.681 133.009 294.703 78.7401C258.725 24.4711 213.995 10.831 213.995 10.831Z" fill="#F3442C"/>
</g>
<path d="M44.57 112.956H28.8432C27.3321 112.956 26.1072 114.181 26.1072 115.692V131.419C26.1072 132.93 27.3321 134.155 28.8432 134.155H44.57C46.0811 134.155 47.306 132.93 47.306 131.419V115.692C47.306 114.181 46.0811 112.956 44.57 112.956Z" stroke="#263238" stroke-width="0.331232" stroke-linecap="round" stroke-linejoin="round"/>
<path d="M67.5644 112.956H51.8375C50.3265 112.956 49.1016 114.181 49.1016 115.692V131.419C49.1016 132.93 50.3265 134.155 51.8375 134.155H67.5644C69.0755 134.155 70.3004 132.93 70.3004 131.419V115.692C70.3004 114.181 69.0755 112.956 67.5644 112.956Z" stroke="#263238" stroke-width="0.331232" stroke-linecap="round" stroke-linejoin="round"/>
<path d="M90.5581 112.956H74.8312C73.3202 112.956 72.0952 114.181 72.0952 115.692V131.419C72.0952 132.93 73.3202 134.155 74.8312 134.155H90.5581C92.0691 134.155 93.2941 132.93 93.2941 131.419V115.692C93.2941 114.181 92.0691 112.956 90.5581 112.956Z" stroke="#263238" stroke-width="0.331232" stroke-linecap="round" stroke-linejoin="round"/>
<path d="M113.546 112.956H97.819C96.3079 112.956 95.083 114.181 95.083 115.692V131.419C95.083 132.93 96.3079 134.155 97.819 134.155H113.546C115.057 134.155 116.282 132.93 116.282 131.419V115.692C116.282 114.181 115.057 112.956 113.546 112.956Z" stroke="#263238" stroke-width="0.331232" stroke-linecap="round" stroke-linejoin="round"/>
<path d="M136.54 112.956H120.813C119.302 112.956 118.077 114.181 118.077 115.692V131.419C118.077 132.93 119.302 134.155 120.813 134.155H136.54C138.051 134.155 139.276 132.93 139.276 131.419V115.692C139.276 114.181 138.051 112.956 136.54 112.956Z" stroke="#263238" stroke-width="0.331232" stroke-linecap="round" stroke-linejoin="round"/>
<path d="M159.534 112.956H143.807C142.296 112.956 141.071 114.181 141.071 115.692V131.419C141.071 132.93 142.296 134.155 143.807 134.155H159.534C161.045 134.155 162.27 132.93 162.27 131.419V115.692C162.27 114.181 161.045 112.956 159.534 112.956Z" stroke="#263238" stroke-width="0.331232" stroke-linecap="round" stroke-linejoin="round"/>
<path d="M182.522 112.956H166.795C165.284 112.956 164.059 114.181 164.059 115.692V131.419C164.059 132.93 165.284 134.155 166.795 134.155H182.522C184.033 134.155 185.258 132.93 185.258 131.419V115.692C185.258 114.181 184.033 112.956 182.522 112.956Z" stroke="#263238" stroke-width="0.331232" stroke-linecap="round" stroke-linejoin="round"/>
<path d="M205.516 112.956H189.789C188.278 112.956 187.053 114.181 187.053 115.692V131.419C187.053 132.93 188.278 134.155 189.789 134.155H205.516C207.027 134.155 208.252 132.93 208.252 131.419V115.692C208.252 114.181 207.027 112.956 205.516 112.956Z" stroke="#263238" stroke-width="0.331232" stroke-linecap="round" stroke-linejoin="round"/>
<path d="M228.51 112.956H212.783C211.272 112.956 210.047 114.181 210.047 115.692V131.419C210.047 132.93 211.272 134.155 212.783 134.155H228.51C230.021 134.155 231.246 132.93 231.246 131.419V115.692C231.246 114.181 230.021 112.956 228.51 112.956Z" stroke="#263238" stroke-width="0.331232" stroke-linecap="round" stroke-linejoin="round"/>
<path d="M251.497 112.956H235.77C234.259 112.956 233.034 114.181 233.034 115.692V131.419C233.034 132.93 234.259 134.155 235.77 134.155H251.497C253.008 134.155 254.233 132.93 254.233 131.419V115.692C254.233 114.181 253.008 112.956 251.497 112.956Z" stroke="#263238" stroke-width="0.331232" stroke-linecap="round" stroke-linejoin="round"/>
<path d="M274.492 112.956H258.765C257.254 112.956 256.029 114.181 256.029 115.692V131.419C256.029 132.93 257.254 134.155 258.765 134.155H274.492C276.003 134.155 277.228 132.93 277.228 131.419V115.692C277.228 114.181 276.003 112.956 274.492 112.956Z" stroke="#263238" stroke-width="0.331232" stroke-linecap="round" stroke-linejoin="round"/>
<path d="M297.486 112.956H281.759C280.248 112.956 279.023 114.181 279.023 115.692V131.419C279.023 132.93 280.248 134.155 281.759 134.155H297.486C298.997 134.155 300.222 132.93 300.222 131.419V115.692C300.222 114.181 298.997 112.956 297.486 112.956Z" stroke="#263238" stroke-width="0.331232" stroke-linecap="round" stroke-linejoin="round"/>
<path d="M44.57 135.613H28.8432C27.3321 135.613 26.1072 136.838 26.1072 138.349V154.076C26.1072 155.587 27.3321 156.811 28.8432 156.811H44.57C46.0811 156.811 47.306 155.587 47.306 154.076V138.349C47.306 136.838 46.0811 135.613 44.57 135.613Z" stroke="#263238" stroke-width="0.331232" stroke-linecap="round" stroke-linejoin="round"/>
<path d="M67.5644 135.613H51.8375C50.3265 135.613 49.1016 136.838 49.1016 138.349V154.076C49.1016 155.587 50.3265 156.811 51.8375 156.811H67.5644C69.0755 156.811 70.3004 155.587 70.3004 154.076V138.349C70.3004 136.838 69.0755 135.613 67.5644 135.613Z" stroke="#263238" stroke-width="0.331232" stroke-linecap="round" stroke-linejoin="round"/>
<path d="M90.5581 135.613H74.8312C73.3202 135.613 72.0952 136.838 72.0952 138.349V154.076C72.0952 155.587 73.3202 156.811 74.8312 156.811H90.5581C92.0691 156.811 93.2941 155.587 93.2941 154.076V138.349C93.2941 136.838 92.0691 135.613 90.5581 135.613Z" stroke="#263238" stroke-width="0.331232" stroke-linecap="round" stroke-linejoin="round"/>
<path d="M113.546 135.613H97.819C96.3079 135.613 95.083 136.838 95.083 138.349V154.076C95.083 155.587 96.3079 156.811 97.819 156.811H113.546C115.057 156.811 116.282 155.587 116.282 154.076V138.349C116.282 136.838 115.057 135.613 113.546 135.613Z" stroke="#263238" stroke-width="0.331232" stroke-linecap="round" stroke-linejoin="round"/>
<path d="M136.54 135.613H120.813C119.302 135.613 118.077 136.838 118.077 138.349V154.076C118.077 155.587 119.302 156.811 120.813 156.811H136.54C138.051 156.811 139.276 155.587 139.276 154.076V138.349C139.276 136.838 138.051 135.613 136.54 135.613Z" stroke="#263238" stroke-width="0.331232" stroke-linecap="round" stroke-linejoin="round"/>
<path d="M159.534 135.613H143.807C142.296 135.613 141.071 136.838 141.071 138.349V154.076C141.071 155.587 142.296 156.811 143.807 156.811H159.534C161.045 156.811 162.27 155.587 162.27 154.076V138.349C162.27 136.838 161.045 135.613 159.534 135.613Z" stroke="#263238" stroke-width="0.331232" stroke-linecap="round" stroke-linejoin="round"/>
<path d="M182.522 135.613H166.795C165.284 135.613 164.059 136.838 164.059 138.349V154.076C164.059 155.587 165.284 156.811 166.795 156.811H182.522C184.033 156.811 185.258 155.587 185.258 154.076V138.349C185.258 136.838 184.033 135.613 182.522 135.613Z" stroke="#263238" stroke-width="0.331232" stroke-linecap="round" stroke-linejoin="round"/>
<path d="M205.516 135.613H189.789C188.278 135.613 187.053 136.838 187.053 138.349V154.076C187.053 155.587 188.278 156.811 189.789 156.811H205.516C207.027 156.811 208.252 155.587 208.252 154.076V138.349C208.252 136.838 207.027 135.613 205.516 135.613Z" stroke="#263238" stroke-width="0.331232" stroke-linecap="round" stroke-linejoin="round"/>
<path d="M228.51 135.613H212.783C211.272 135.613 210.047 136.838 210.047 138.349V154.076C210.047 155.587 211.272 156.811 212.783 156.811H228.51C230.021 156.811 231.246 155.587 231.246 154.076V138.349C231.246 136.838 230.021 135.613 228.51 135.613Z" stroke="#263238" stroke-width="0.331232" stroke-linecap="round" stroke-linejoin="round"/>
<path d="M251.497 135.613H235.77C234.259 135.613 233.034 136.838 233.034 138.349V154.076C233.034 155.587 234.259 156.811 235.77 156.811H251.497C253.008 156.811 254.233 155.587 254.233 154.076V138.349C254.233 136.838 253.008 135.613 251.497 135.613Z" stroke="#263238" stroke-width="0.331232" stroke-linecap="round" stroke-linejoin="round"/>
<path d="M274.492 135.613H258.765C257.254 135.613 256.029 136.838 256.029 138.349V154.076C256.029 155.587 257.254 156.811 258.765 156.811H274.492C276.003 156.811 277.228 155.587 277.228 154.076V138.349C277.228 136.838 276.003 135.613 274.492 135.613Z" stroke="#263238" stroke-width="0.331232" stroke-linecap="round" stroke-linejoin="round"/>
<path d="M297.486 135.613H281.759C280.248 135.613 279.023 136.838 279.023 138.349V154.076C279.023 155.587 280.248 156.811 281.759 156.811H297.486C298.997 156.811 300.222 155.587 300.222 154.076V138.349C300.222 136.838 298.997 135.613 297.486 135.613Z" stroke="#263238" stroke-width="0.331232" stroke-linecap="round" stroke-linejoin="round"/>
<path d="M44.57 158.269H28.8432C27.3321 158.269 26.1072 159.494 26.1072 161.005V176.732C26.1072 178.243 27.3321 179.468 28.8432 179.468H44.57C46.0811 179.468 47.306 178.243 47.306 176.732V161.005C47.306 159.494 46.0811 158.269 44.57 158.269Z" stroke="#263238" stroke-width="0.331232" stroke-linecap="round" stroke-linejoin="round"/>
<path d="M67.5644 158.269H51.8375C50.3265 158.269 49.1016 159.494 49.1016 161.005V176.732C49.1016 178.243 50.3265 179.468 51.8375 179.468H67.5644C69.0755 179.468 70.3004 178.243 70.3004 176.732V161.005C70.3004 159.494 69.0755 158.269 67.5644 158.269Z" stroke="#263238" stroke-width="0.331232" stroke-linecap="round" stroke-linejoin="round"/>
<path d="M90.5581 158.269H74.8312C73.3202 158.269 72.0952 159.494 72.0952 161.005V176.732C72.0952 178.243 73.3202 179.468 74.8312 179.468H90.5581C92.0691 179.468 93.2941 178.243 93.2941 176.732V161.005C93.2941 159.494 92.0691 158.269 90.5581 158.269Z" stroke="#263238" stroke-width="0.331232" stroke-linecap="round" stroke-linejoin="round"/>
<path d="M113.546 158.269H97.819C96.3079 158.269 95.083 159.494 95.083 161.005V176.732C95.083 178.243 96.3079 179.468 97.819 179.468H113.546C115.057 179.468 116.282 178.243 116.282 176.732V161.005C116.282 159.494 115.057 158.269 113.546 158.269Z" stroke="#263238" stroke-width="0.331232" stroke-linecap="round" stroke-linejoin="round"/>
<path d="M136.54 158.269H120.813C119.302 158.269 118.077 159.494 118.077 161.005V176.732C118.077 178.243 119.302 179.468 120.813 179.468H136.54C138.051 179.468 139.276 178.243 139.276 176.732V161.005C139.276 159.494 138.051 158.269 136.54 158.269Z" stroke="#263238" stroke-width="0.331232" stroke-linecap="round" stroke-linejoin="round"/>
<path d="M159.534 158.269H143.807C142.296 158.269 141.071 159.494 141.071 161.005V176.732C141.071 178.243 142.296 179.468 143.807 179.468H159.534C161.045 179.468 162.27 178.243 162.27 176.732V161.005C162.27 159.494 161.045 158.269 159.534 158.269Z" stroke="#263238" stroke-width="0.331232" stroke-linecap="round" stroke-linejoin="round"/>
<path d="M182.522 158.269H166.795C165.284 158.269 164.059 159.494 164.059 161.005V176.732C164.059 178.243 165.284 179.468 166.795 179.468H182.522C184.033 179.468 185.258 178.243 185.258 176.732V161.005C185.258 159.494 184.033 158.269 182.522 158.269Z" stroke="#263238" stroke-width="0.331232" stroke-linecap="round" stroke-linejoin="round"/>
<path d="M205.516 158.269H189.789C188.278 158.269 187.053 159.494 187.053 161.005V176.732C187.053 178.243 188.278 179.468 189.789 179.468H205.516C207.027 179.468 208.252 178.243 208.252 176.732V161.005C208.252 159.494 207.027 158.269 205.516 158.269Z" stroke="#263238" stroke-width="0.331232" stroke-linecap="round" stroke-linejoin="round"/>
<path d="M228.51 158.269H212.783C211.272 158.269 210.047 159.494 210.047 161.005V176.732C210.047 178.243 211.272 179.468 212.783 179.468H228.51C230.021 179.468 231.246 178.243 231.246 176.732V161.005C231.246 159.494 230.021 158.269 228.51 158.269Z" stroke="#263238" stroke-width="0.331232" stroke-linecap="round" stroke-linejoin="round"/>
<path d="M251.497 158.269H235.77C234.259 158.269 233.034 159.494 233.034 161.005V176.732C233.034 178.243 234.259 179.468 235.77 179.468H251.497C253.008 179.468 254.233 178.243 254.233 176.732V161.005C254.233 159.494 253.008 158.269 251.497 158.269Z" stroke="#263238" stroke-width="0.331232" stroke-linecap="round" stroke-linejoin="round"/>
<path d="M274.492 158.269H258.765C257.254 158.269 256.029 159.494 256.029 161.005V176.732C256.029 178.243 257.254 179.468 258.765 179.468H274.492C276.003 179.468 277.228 178.243 277.228 176.732V161.005C277.228 159.494 276.003 158.269 274.492 158.269Z" stroke="#263238" stroke-width="0.331232" stroke-linecap="round" stroke-linejoin="round"/>
<path d="M297.486 158.269H281.759C280.248 158.269 279.023 159.494 279.023 161.005V176.732C279.023 178.243 280.248 179.468 281.759 179.468H297.486C298.997 179.468 300.222 178.243 300.222 176.732V161.005C300.222 159.494 298.997 158.269 297.486 158.269Z" stroke="#263238" stroke-width="0.331232" stroke-linecap="round" stroke-linejoin="round"/>
<path d="M44.57 180.925H28.8432C27.3321 180.925 26.1072 182.15 26.1072 183.661V199.388C26.1072 200.899 27.3321 202.124 28.8432 202.124H44.57C46.0811 202.124 47.306 200.899 47.306 199.388V183.661C47.306 182.15 46.0811 180.925 44.57 180.925Z" stroke="#263238" stroke-width="0.331232" stroke-linecap="round" stroke-linejoin="round"/>
<path d="M67.5644 180.925H51.8375C50.3265 180.925 49.1016 182.15 49.1016 183.661V199.388C49.1016 200.899 50.3265 202.124 51.8375 202.124H67.5644C69.0755 202.124 70.3004 200.899 70.3004 199.388V183.661C70.3004 182.15 69.0755 180.925 67.5644 180.925Z" stroke="#263238" stroke-width="0.331232" stroke-linecap="round" stroke-linejoin="round"/>
<path d="M90.5581 180.925H74.8312C73.3202 180.925 72.0952 182.15 72.0952 183.661V199.388C72.0952 200.899 73.3202 202.124 74.8312 202.124H90.5581C92.0691 202.124 93.2941 200.899 93.2941 199.388V183.661C93.2941 182.15 92.0691 180.925 90.5581 180.925Z" stroke="#263238" stroke-width="0.331232" stroke-linecap="round" stroke-linejoin="round"/>
<path d="M113.546 180.925H97.819C96.3079 180.925 95.083 182.15 95.083 183.661V199.388C95.083 200.899 96.3079 202.124 97.819 202.124H113.546C115.057 202.124 116.282 200.899 116.282 199.388V183.661C116.282 182.15 115.057 180.925 113.546 180.925Z" stroke="#263238" stroke-width="0.331232" stroke-linecap="round" stroke-linejoin="round"/>
<path d="M136.54 180.925H120.813C119.302 180.925 118.077 182.15 118.077 183.661V199.388C118.077 200.899 119.302 202.124 120.813 202.124H136.54C138.051 202.124 139.276 200.899 139.276 199.388V183.661C139.276 182.15 138.051 180.925 136.54 180.925Z" stroke="#263238" stroke-width="0.331232" stroke-linecap="round" stroke-linejoin="round"/>
<path d="M159.534 180.925H143.807C142.296 180.925 141.071 182.15 141.071 183.661V199.388C141.071 200.899 142.296 202.124 143.807 202.124H159.534C161.045 202.124 162.27 200.899 162.27 199.388V183.661C162.27 182.15 161.045 180.925 159.534 180.925Z" stroke="#263238" stroke-width="0.331232" stroke-linecap="round" stroke-linejoin="round"/>
<path d="M182.522 180.925H166.795C165.284 180.925 164.059 182.15 164.059 183.661V199.388C164.059 200.899 165.284 202.124 166.795 202.124H182.522C184.033 202.124 185.258 200.899 185.258 199.388V183.661C185.258 182.15 184.033 180.925 182.522 180.925Z" stroke="#263238" stroke-width="0.331232" stroke-linecap="round" stroke-linejoin="round"/>
<path d="M205.516 180.925H189.789C188.278 180.925 187.053 182.15 187.053 183.661V199.388C187.053 200.899 188.278 202.124 189.789 202.124H205.516C207.027 202.124 208.252 200.899 208.252 199.388V183.661C208.252 182.15 207.027 180.925 205.516 180.925Z" stroke="#263238" stroke-width="0.331232" stroke-linecap="round" stroke-linejoin="round"/>
<path d="M228.51 180.925H212.783C211.272 180.925 210.047 182.15 210.047 183.661V199.388C210.047 200.899 211.272 202.124 212.783 202.124H228.51C230.021 202.124 231.246 200.899 231.246 199.388V183.661C231.246 182.15 230.021 180.925 228.51 180.925Z" stroke="#263238" stroke-width="0.331232" stroke-linecap="round" stroke-linejoin="round"/>
<path d="M251.497 180.925H235.77C234.259 180.925 233.034 182.15 233.034 183.661V199.388C233.034 200.899 234.259 202.124 235.77 202.124H251.497C253.008 202.124 254.233 200.899 254.233 199.388V183.661C254.233 182.15 253.008 180.925 251.497 180.925Z" stroke="#263238" stroke-width="0.331232" stroke-linecap="round" stroke-linejoin="round"/>
<path d="M274.492 180.925H258.765C257.254 180.925 256.029 182.15 256.029 183.661V199.388C256.029 200.899 257.254 202.124 258.765 202.124H274.492C276.003 202.124 277.228 200.899 277.228 199.388V183.661C277.228 182.15 276.003 180.925 274.492 180.925Z" stroke="#263238" stroke-width="0.331232" stroke-linecap="round" stroke-linejoin="round"/>
<path d="M297.486 180.925H281.759C280.248 180.925 279.023 182.15 279.023 183.661V199.388C279.023 200.899 280.248 202.124 281.759 202.124H297.486C298.997 202.124 300.222 200.899 300.222 199.388V183.661C300.222 182.15 298.997 180.925 297.486 180.925Z" stroke="#263238" stroke-width="0.331232" stroke-linecap="round" stroke-linejoin="round"/>
<path d="M73.6392 103.225V1.00001" stroke="#263238" stroke-width="0.331232" stroke-linecap="round" stroke-linejoin="round"/>
<path d="M80.4221 75.1032H76.7852V96.2756H80.4221V75.1032Z" fill="#263238" stroke="#263238" stroke-width="0.331232" stroke-linecap="round" stroke-linejoin="round"/>
<path d="M70.4992 75.1032H66.8623V96.2756H70.4992V75.1032Z" fill="#263238" stroke="#263238" stroke-width="0.331232" stroke-linecap="round" stroke-linejoin="round"/>
<path d="M25.0142 103.225H299.254" stroke="#263238" stroke-width="0.662464" stroke-linecap="round" stroke-linejoin="round"/>
<path d="M237.062 103.225V1.00001" stroke="#263238" stroke-width="0.331232" stroke-linecap="round" stroke-linejoin="round"/>
<path d="M234.743 75.1032H231.106V96.2756H234.743V75.1032Z" fill="#263238" stroke="#263238" stroke-width="0.331232" stroke-linecap="round" stroke-linejoin="round"/>
<path d="M243.514 75.1032H239.877V96.2756H243.514V75.1032Z" fill="#263238" stroke="#263238" stroke-width="0.331232" stroke-linecap="round" stroke-linejoin="round"/>
<path d="M25.332 232.955H29.3068V236.46C29.3068 236.957 29.1093 237.434 28.7577 237.785C28.4061 238.137 27.9293 238.334 27.432 238.334H27.2068C26.7096 238.334 26.2327 238.137 25.8811 237.785C25.5296 237.434 25.332 236.957 25.332 236.46V232.955Z" fill="white" stroke="#263238" stroke-width="0.331232" stroke-linecap="round" stroke-linejoin="round"/>
<path d="M61.6018 232.955H65.5766V236.46C65.5766 236.957 65.3791 237.434 65.0275 237.785C64.6759 238.137 64.1991 238.334 63.7019 238.334H63.47C62.9728 238.334 62.4959 238.137 62.1443 237.785C61.7927 237.434 61.5952 236.957 61.5952 236.46V232.955H61.6018Z" fill="white" stroke="#263238" stroke-width="0.331232" stroke-linecap="round" stroke-linejoin="round"/>
<path d="M67.8092 231.438H23.1724L39.2835 212.783H78.0972L67.8092 231.438Z" fill="white" stroke="#263238" stroke-width="0.331232" stroke-linecap="round" stroke-linejoin="round"/>
<path d="M67.5972 231.438H23.1724V235.075H67.5972V231.438Z" fill="white" stroke="#263238" stroke-width="0.331232" stroke-linecap="round" stroke-linejoin="round"/>
<path d="M67.5972 231.438L78.0972 212.783V216.705L67.5972 235.075V231.438Z" fill="white" stroke="#263238" stroke-width="0.331232" stroke-linecap="round" stroke-linejoin="round"/>
<path d="M38.5684 214.3V219.229C38.5684 220.978 41.9734 222.389 46.1734 222.389C50.3735 222.389 53.7785 220.978 53.7785 219.229V214.3H38.5684Z" fill="#263238" stroke="#263238" stroke-width="0.331232" stroke-linecap="round" stroke-linejoin="round"/>
<path d="M46.1734 217.46C50.3736 217.46 53.7785 216.045 53.7785 214.3C53.7785 212.555 50.3736 211.14 46.1734 211.14C41.9733 211.14 38.5684 212.555 38.5684 214.3C38.5684 216.045 41.9733 217.46 46.1734 217.46Z" fill="white" stroke="#263238" stroke-width="0.331232" stroke-linecap="round" stroke-linejoin="round"/>
<path d="M46.1729 215.797C48.1669 215.797 49.7834 215.127 49.7834 214.3C49.7834 213.473 48.1669 212.803 46.1729 212.803C44.1789 212.803 42.5625 213.473 42.5625 214.3C42.5625 215.127 44.1789 215.797 46.1729 215.797Z" fill="#F3442C" stroke="#263238" stroke-width="0.331232" stroke-linecap="round" stroke-linejoin="round"/>
<path d="M57.5874 215.122V220.05C57.5874 221.799 60.9858 223.21 65.1859 223.21C69.3859 223.21 72.7909 221.799 72.7909 220.05V215.122H57.5874Z" fill="#263238" stroke="#263238" stroke-width="0.331232" stroke-linecap="round" stroke-linejoin="round"/>
<path d="M65.1856 218.282C69.3858 218.282 72.7907 216.867 72.7907 215.122C72.7907 213.376 69.3858 211.962 65.1856 211.962C60.9855 211.962 57.5806 213.376 57.5806 215.122C57.5806 216.867 60.9855 218.282 65.1856 218.282Z" fill="white" stroke="#263238" stroke-width="0.331232" stroke-linecap="round" stroke-linejoin="round"/>
<path d="M65.1856 216.619C67.1796 216.619 68.7961 215.948 68.7961 215.122C68.7961 214.295 67.1796 213.624 65.1856 213.624C63.1916 213.624 61.5752 214.295 61.5752 215.122C61.5752 215.948 63.1916 216.619 65.1856 216.619Z" fill="#F3442C" stroke="#263238" stroke-width="0.331232" stroke-linecap="round" stroke-linejoin="round"/>
<path d="M44.6362 221.084V226.013C44.6362 227.761 48.0413 229.172 52.2413 229.172C56.4413 229.172 59.8398 227.761 59.8398 226.013V221.084H44.6362Z" fill="#263238" stroke="#263238" stroke-width="0.331232" stroke-linecap="round" stroke-linejoin="round"/>
<path d="M52.2413 224.244C56.4415 224.244 59.8464 222.829 59.8464 221.084C59.8464 219.339 56.4415 217.924 52.2413 217.924C48.0411 217.924 44.6362 219.339 44.6362 221.084C44.6362 222.829 48.0411 224.244 52.2413 224.244Z" fill="white" stroke="#263238" stroke-width="0.331232" stroke-linecap="round" stroke-linejoin="round"/>
<path d="M55.8517 221.084C55.8517 221.912 54.2353 222.581 52.2413 222.581C50.2473 222.581 48.6309 221.918 48.6309 221.084C48.6309 220.249 50.2473 219.58 52.2413 219.58C54.2353 219.58 55.8517 220.256 55.8517 221.084Z" fill="#F3442C" stroke="#263238" stroke-width="0.331232" stroke-linecap="round" stroke-linejoin="round"/>
<path d="M222.846 233.465H92.8706L99.3694 214.81H216.347L222.846 233.465Z" fill="white" stroke="#263238" stroke-width="0.331232" stroke-linecap="round" stroke-linejoin="round"/>
<path d="M222.634 233.465H92.8706V237.102H222.634V233.465Z" fill="white" stroke="#263238" stroke-width="0.331232" stroke-linecap="round" stroke-linejoin="round"/>
<path d="M152.691 213.181C151.836 212.8 150.911 212.601 149.975 212.598H114.202C113.227 212.597 112.262 212.788 111.361 213.161C110.461 213.533 109.643 214.08 108.953 214.769C108.264 215.458 107.718 216.276 107.345 217.177C106.973 218.077 106.781 219.043 106.782 220.017V224.065C106.782 224.437 106.93 224.795 107.194 225.058C107.457 225.321 107.814 225.469 108.187 225.469H152.717L152.691 213.181Z" fill="#263238" stroke="#263238" stroke-width="0.331232" stroke-linecap="round" stroke-linejoin="round"/>
<path d="M152.691 219.169C152.691 222.647 152.366 225.469 151.962 225.469C151.558 225.469 151.227 222.647 151.227 219.169C151.227 215.691 151.558 212.869 151.962 212.869C152.366 212.869 152.691 215.691 152.691 219.169Z" fill="white" stroke="#263238" stroke-width="0.331232" stroke-linecap="round" stroke-linejoin="round"/>
<path d="M132.128 212.598H130.704C130.243 216.872 130.064 221.172 130.167 225.469H131.578C131.474 221.171 131.658 216.871 132.128 212.598Z" fill="#4A4A4A"/>
<path d="M119.627 225.469V217.977C119.741 216.127 120.162 214.309 120.873 212.598H119.369C118.699 214.317 118.312 216.134 118.223 217.977V225.469H119.627Z" fill="#4A4A4A"/>
<path d="M144.192 212.598H142.787V225.469H144.192V212.598Z" fill="#4A4A4A"/>
<path d="M242.732 242.23V246.43L269.834 247.755C270.354 247.781 270.875 247.7 271.363 247.519C271.852 247.338 272.298 247.059 272.676 246.699C273.053 246.34 273.354 245.908 273.559 245.428C273.763 244.949 273.869 244.433 273.868 243.912V243.184C273.868 242.644 273.755 242.11 273.536 241.617C273.316 241.124 272.996 240.683 272.595 240.322C272.194 239.961 271.721 239.688 271.208 239.521C270.694 239.355 270.152 239.298 269.615 239.355L242.732 242.23Z" fill="white" stroke="#263238" stroke-width="0.331232" stroke-linecap="round" stroke-linejoin="round"/>
<path d="M244.058 241.13L244.72 252.173C244.72 252.173 206.072 251.729 178.474 244.224L244.058 241.13Z" fill="#263238" stroke="#263238" stroke-width="0.331232" stroke-linecap="round" stroke-linejoin="round"/>
<path d="M188.271 243.78L178.474 244.244C206.072 251.749 244.72 252.193 244.72 252.193L244.356 246.092C221.481 247.953 198.434 245.244 188.271 243.78Z" fill="white" stroke="#263238" stroke-width="0.331232" stroke-linecap="round" stroke-linejoin="round"/>
<path d="M266.608 231.193C266.608 232.723 262.468 233.962 257.334 233.962C252.199 233.962 248.059 232.723 248.059 231.193C248.059 229.663 252.199 228.424 257.334 228.424C262.468 228.424 266.608 229.676 266.608 231.193Z" fill="#263238" stroke="white" stroke-width="0.331232" stroke-linecap="round" stroke-linejoin="round"/>
<path d="M241.388 219.64C241.388 219.64 241.242 223.33 246.025 228.609C248.622 231.087 252.65 232.346 257.035 232.346C261.772 232.346 265.965 231.325 267.793 229.192C267.793 229.192 270.059 227.437 273.332 219.64H241.388Z" fill="#263238" stroke="white" stroke-width="0.331232" stroke-linecap="round" stroke-linejoin="round"/>
<path d="M257.36 224.416C266.181 224.416 273.332 222.278 273.332 219.64C273.332 217.002 266.181 214.863 257.36 214.863C248.539 214.863 241.388 217.002 241.388 219.64C241.388 222.278 248.539 224.416 257.36 224.416Z" fill="#263238" stroke="white" stroke-width="0.331232" stroke-linecap="round" stroke-linejoin="round"/>
<path d="M55.9777 255.989C55.9777 257.513 51.8373 258.752 46.7032 258.752C41.5691 258.752 37.4287 257.513 37.4287 255.989C37.4287 254.465 41.5691 253.22 46.7032 253.22C51.8373 253.22 55.9777 254.459 55.9777 255.989Z" fill="#263238" stroke="white" stroke-width="0.331232" stroke-linecap="round" stroke-linejoin="round"/>
<path d="M30.7642 244.442C30.7642 244.442 30.6184 248.139 35.4014 253.419C37.9983 255.896 42.026 257.155 46.4115 257.155C51.1548 257.155 55.3482 256.135 57.1766 254.002C57.1766 254.002 59.4356 252.239 62.7082 244.442H30.7642Z" fill="#263238" stroke="white" stroke-width="0.331232" stroke-linecap="round" stroke-linejoin="round"/>
<path d="M46.7293 249.192C55.5504 249.192 62.7013 247.054 62.7013 244.416C62.7013 241.778 55.5504 239.639 46.7293 239.639C37.9082 239.639 30.7573 241.778 30.7573 244.416C30.7573 247.054 37.9082 249.192 46.7293 249.192Z" fill="#263238" stroke="white" stroke-width="0.331232" stroke-linecap="round" stroke-linejoin="round"/>
<path d="M155.99 311C188.007 311 213.962 297.431 213.962 280.692C213.962 263.954 188.007 250.385 155.99 250.385C123.973 250.385 98.0176 263.954 98.0176 280.692C98.0176 297.431 123.973 311 155.99 311Z" fill="white" stroke="#263238" stroke-width="0.331232" stroke-linecap="round" stroke-linejoin="round"/>
<path d="M155.99 309.304C192.193 309.304 221.541 295.735 221.541 278.996C221.541 262.258 192.193 248.689 155.99 248.689C119.788 248.689 90.4395 262.258 90.4395 278.996C90.4395 295.735 119.788 309.304 155.99 309.304Z" fill="white" stroke="#263238" stroke-width="0.331232" stroke-linecap="round" stroke-linejoin="round"/>
<path d="M155.99 307.608C192.193 307.608 221.541 294.039 221.541 277.3C221.541 260.562 192.193 246.993 155.99 246.993C119.788 246.993 90.4395 260.562 90.4395 277.3C90.4395 294.039 119.788 307.608 155.99 307.608Z" fill="white" stroke="#263238" stroke-width="0.331232" stroke-linecap="round" stroke-linejoin="round"/>
<path d="M155.99 300.208C183.353 300.208 205.535 289.952 205.535 277.3C205.535 264.649 183.353 254.392 155.99 254.392C128.626 254.392 106.444 264.649 106.444 277.3C106.444 289.952 128.626 300.208 155.99 300.208Z" fill="white" stroke="#263238" stroke-width="0.165616" stroke-linecap="round" stroke-linejoin="round"/>
<path d="M174.943 273.332C174.943 273.332 185.973 263.15 202.508 262.733C219.043 262.316 220.315 272.067 219.07 274.611C217.824 277.155 211.438 275.883 204.23 277.579C197.023 279.275 178.686 281.633 175.559 279.182C172.432 276.731 173.671 275.028 174.943 273.332Z" fill="white" stroke="#263238" stroke-width="0.331232" stroke-linecap="round" stroke-linejoin="round"/>
<path d="M193.101 269.338C193.101 269.338 197.877 270.934 199.865 275.3" stroke="#263238" stroke-width="0.331232" stroke-linecap="round" stroke-linejoin="round"/>
<path d="M199.666 268.543C202.176 269.65 204.266 271.533 205.628 273.915" stroke="#263238" stroke-width="0.331232" stroke-linecap="round" stroke-linejoin="round"/>
<path d="M206.628 266.966C206.628 266.966 210.411 268.158 213.598 273.73" stroke="#263238" stroke-width="0.331232" stroke-linecap="round" stroke-linejoin="round"/>
<path d="M179.169 273.319C179.169 273.319 192.704 264.979 205.237 265.562" stroke="#263238" stroke-width="0.331232" stroke-linecap="round" stroke-linejoin="round"/>
<path d="M175.142 264.091C176.068 264.6 177.114 264.847 178.17 264.808C179.226 264.768 180.251 264.442 181.137 263.866C183.502 262.388 188.04 260.156 194.876 259.334C205.476 258.063 204.204 252.975 198.692 250.855C193.18 248.735 182.131 249.159 177.917 253.823C174.499 257.579 171.359 261.892 175.142 264.091Z" fill="white" stroke="#263238" stroke-width="0.331232" stroke-linecap="round" stroke-linejoin="round"/>
<path d="M177.778 260.586C177.778 260.586 182.157 252.027 192.107 252.027" stroke="#263238" stroke-width="0.331232" stroke-linecap="round" stroke-linejoin="round"/>
<path d="M182.753 255.214C185.454 255.547 188.041 256.499 190.312 257.996" stroke="#263238" stroke-width="0.331232" stroke-linecap="round" stroke-linejoin="round"/>
<path d="M191.908 253.22C194.031 253.771 196.003 254.792 197.678 256.208" stroke="#263238" stroke-width="0.331232" stroke-linecap="round" stroke-linejoin="round"/>
<path d="M180.169 258.195C180.169 258.195 183.747 259.189 184.542 260.182" stroke="#263238" stroke-width="0.331232" stroke-linecap="round" stroke-linejoin="round"/>
<path d="M166.464 258.486C166.464 258.486 167.736 252.524 163.496 248.311C159.256 244.098 147.809 244.495 145.689 247.887C143.569 251.279 153.745 252.975 153.745 257.639C153.745 262.302 158.382 266.549 162.648 264.853C166.914 263.157 166.464 258.486 166.464 258.486Z" fill="white" stroke="#263238" stroke-width="0.331232" stroke-linecap="round" stroke-linejoin="round"/>
<path d="M157.288 247.649C154.582 247.497 151.889 248.12 149.524 249.444" stroke="#263238" stroke-width="0.331232" stroke-linecap="round" stroke-linejoin="round"/>
<path d="M159.077 251.232C159.077 251.232 154.698 250.835 152.114 252.027" stroke="#263238" stroke-width="0.331232" stroke-linecap="round" stroke-linejoin="round"/>
<path d="M159.872 254.816C159.872 254.816 156.487 255.214 155.294 256.009" stroke="#263238" stroke-width="0.331232" stroke-linecap="round" stroke-linejoin="round"/>
<path d="M146.013 264.091C145.092 264.595 144.051 264.84 143.001 264.8C141.952 264.76 140.932 264.437 140.051 263.866C137.686 262.388 133.142 260.156 126.312 259.334C115.712 258.063 116.978 252.975 122.496 250.855C128.014 248.735 139.057 249.159 143.271 253.823C146.663 257.579 149.803 261.892 146.013 264.091Z" fill="white" stroke="#263238" stroke-width="0.331232" stroke-linecap="round" stroke-linejoin="round"/>
<path d="M127.835 253.22C127.835 253.22 133.797 251.232 137.388 251.829" stroke="#263238" stroke-width="0.331232" stroke-linecap="round" stroke-linejoin="round"/>
<path d="M134.804 254.419C136.869 253.724 139.105 253.724 141.17 254.419" stroke="#263238" stroke-width="0.331232" stroke-linecap="round" stroke-linejoin="round"/>
<path d="M137.785 257.798C138.381 257.798 141.17 257.003 143.747 257.798" stroke="#263238" stroke-width="0.331232" stroke-linecap="round" stroke-linejoin="round"/>
<path d="M93.9433 271.212C93.9433 271.212 104.967 261.03 121.502 260.613C138.037 260.196 139.315 269.947 138.063 272.491C136.811 275.035 130.432 273.763 123.218 275.459C116.003 277.155 97.6796 279.513 94.5462 277.062C91.4127 274.611 92.6847 272.928 93.9433 271.212Z" fill="white" stroke="#263238" stroke-width="0.331232" stroke-linecap="round" stroke-linejoin="round"/>
<path d="M97.7925 273.12C97.7925 273.12 97.9912 269.934 103.96 266.357" stroke="#263238" stroke-width="0.331232" stroke-linecap="round" stroke-linejoin="round"/>
<path d="M104.755 270.729C104.755 270.729 105.55 267.748 110.717 263.965" stroke="#263238" stroke-width="0.331232" stroke-linecap="round" stroke-linejoin="round"/>
<path d="M112.115 268.741C112.115 268.741 113.44 264.144 117.487 262.375" stroke="#263238" stroke-width="0.331232" stroke-linecap="round" stroke-linejoin="round"/>
<path d="M122.661 262.176C122.661 262.176 120.276 264.164 119.68 265.959" stroke="#263238" stroke-width="0.331232" stroke-linecap="round" stroke-linejoin="round"/>
<path d="M159.991 277.148C168.9 277.148 176.122 273.257 176.122 268.457C176.122 263.656 168.9 259.765 159.991 259.765C151.082 259.765 143.86 263.656 143.86 268.457C143.86 273.257 151.082 277.148 159.991 277.148Z" fill="white" stroke="#263238" stroke-width="0.331232" stroke-linecap="round" stroke-linejoin="round"/>
<path d="M159.991 274.882C169.595 274.882 177.381 270.991 177.381 266.191C177.381 261.391 169.595 257.499 159.991 257.499C150.387 257.499 142.602 261.391 142.602 266.191C142.602 270.991 150.387 274.882 159.991 274.882Z" fill="white" stroke="#263238" stroke-width="0.331232" stroke-linecap="round" stroke-linejoin="round"/>
<path d="M159.991 274.882C167.645 274.882 173.85 271.836 173.85 268.079C173.85 264.321 167.645 261.275 159.991 261.275C152.337 261.275 146.132 264.321 146.132 268.079C146.132 271.836 152.337 274.882 159.991 274.882Z" fill="#263238" stroke="#263238" stroke-width="0.331232" stroke-linecap="round" stroke-linejoin="round"/>
<path d="M119.229 270.186V277.658C119.229 280.308 123.582 282.448 128.954 282.448C134.327 282.448 138.679 280.301 138.679 277.658V270.186H119.229Z" fill="#263238" stroke="#263238" stroke-width="0.331232" stroke-linecap="round" stroke-linejoin="round"/>
<path d="M128.954 274.969C134.325 274.969 138.679 272.827 138.679 270.186C138.679 267.544 134.325 265.403 128.954 265.403C123.584 265.403 119.229 267.544 119.229 270.186C119.229 272.827 123.584 274.969 128.954 274.969Z" fill="white" stroke="#263238" stroke-width="0.331232" stroke-linecap="round" stroke-linejoin="round"/>
<path d="M128.955 272.458C131.505 272.458 133.572 271.441 133.572 270.186C133.572 268.931 131.505 267.913 128.955 267.913C126.405 267.913 124.337 268.931 124.337 270.186C124.337 271.441 126.405 272.458 128.955 272.458Z" fill="#F3442C" stroke="#263238" stroke-width="0.331232" stroke-linecap="round" stroke-linejoin="round"/>
<path d="M104.198 277.738V285.21C104.198 287.86 108.551 290 113.917 290C119.283 290 123.642 287.853 123.642 285.21V277.738H104.198Z" fill="#263238" stroke="#263238" stroke-width="0.331232" stroke-linecap="round" stroke-linejoin="round"/>
<path d="M113.917 282.521C119.288 282.521 123.642 280.379 123.642 277.738C123.642 275.096 119.288 272.955 113.917 272.955C108.546 272.955 104.192 275.096 104.192 277.738C104.192 280.379 108.546 282.521 113.917 282.521Z" fill="white" stroke="#263238" stroke-width="0.331232" stroke-linecap="round" stroke-linejoin="round"/>
<path d="M118.534 277.738C118.534 278.996 116.467 280.01 113.897 280.01C111.327 280.01 109.26 278.996 109.26 277.738C109.26 276.479 111.327 275.465 113.897 275.465C116.467 275.465 118.534 276.486 118.534 277.738Z" fill="#F3442C" stroke="#263238" stroke-width="0.331232" stroke-linecap="round" stroke-linejoin="round"/>
<path d="M135.943 278.725V286.177C135.943 288.827 140.296 290.96 145.662 290.96C151.028 290.96 155.387 288.827 155.387 286.177V278.725H135.943Z" fill="#263238" stroke="#263238" stroke-width="0.331232" stroke-linecap="round" stroke-linejoin="round"/>
<path d="M145.662 283.508C151.033 283.508 155.387 281.366 155.387 278.725C155.387 276.083 151.033 273.942 145.662 273.942C140.291 273.942 135.937 276.083 135.937 278.725C135.937 281.366 140.291 283.508 145.662 283.508Z" fill="white" stroke="#263238" stroke-width="0.331232" stroke-linecap="round" stroke-linejoin="round"/>
<path d="M150.253 278.725C150.253 279.977 148.186 280.997 145.616 280.997C143.045 280.997 140.979 279.977 140.979 278.725C140.979 277.473 143.052 276.453 145.616 276.453C148.179 276.453 150.253 277.466 150.253 278.725Z" fill="#F3442C" stroke="#263238" stroke-width="0.331232" stroke-linecap="round" stroke-linejoin="round"/>
<path d="M175.532 279.175V286.648C175.532 289.298 179.885 291.437 185.257 291.437C190.63 291.437 194.976 289.291 194.976 286.648V279.175H175.532Z" fill="#263238" stroke="#263238" stroke-width="0.331232" stroke-linecap="round" stroke-linejoin="round"/>
<path d="M194.976 279.175C194.976 281.825 190.623 283.958 185.257 283.958C179.891 283.958 175.532 281.818 175.532 279.175C175.532 276.532 179.885 274.392 185.257 274.392C190.63 274.392 194.976 276.532 194.976 279.175Z" fill="white" stroke="#263238" stroke-width="0.331232" stroke-linecap="round" stroke-linejoin="round"/>
<path d="M189.868 279.175C189.868 280.427 187.801 281.447 185.231 281.447C182.661 281.447 180.594 280.427 180.594 279.175C180.594 277.923 182.661 276.903 185.231 276.903C187.801 276.903 189.868 277.923 189.868 279.175Z" fill="#F3442C" stroke="#263238" stroke-width="0.331232" stroke-linecap="round" stroke-linejoin="round"/>
<path d="M121.012 285.753V293.226C121.012 295.876 125.364 298.009 130.737 298.009C136.109 298.009 140.455 295.869 140.455 293.226V285.753H121.012Z" fill="#263238" stroke="#263238" stroke-width="0.331232" stroke-linecap="round" stroke-linejoin="round"/>
<path d="M130.737 290.536C136.108 290.536 140.462 288.395 140.462 285.753C140.462 283.112 136.108 280.971 130.737 280.971C125.366 280.971 121.012 283.112 121.012 285.753C121.012 288.395 125.366 290.536 130.737 290.536Z" fill="white" stroke="#263238" stroke-width="0.331232" stroke-linecap="round" stroke-linejoin="round"/>
<path d="M130.737 288.026C133.287 288.026 135.354 287.008 135.354 285.753C135.354 284.499 133.287 283.481 130.737 283.481C128.187 283.481 126.12 284.499 126.12 285.753C126.12 287.008 128.187 288.026 130.737 288.026Z" fill="#F3442C" stroke="#263238" stroke-width="0.331232" stroke-linecap="round" stroke-linejoin="round"/>
<path d="M156.427 283.229V290.702C156.427 293.352 160.78 295.492 166.152 295.492C171.525 295.492 175.877 293.345 175.877 290.702V283.229H156.427Z" fill="#263238" stroke="#263238" stroke-width="0.331232" stroke-linecap="round" stroke-linejoin="round"/>
<path d="M166.152 288.013C171.523 288.013 175.877 285.871 175.877 283.23C175.877 280.588 171.523 278.447 166.152 278.447C160.781 278.447 156.427 280.588 156.427 283.23C156.427 285.871 160.781 288.013 166.152 288.013Z" fill="white" stroke="#263238" stroke-width="0.331232" stroke-linecap="round" stroke-linejoin="round"/>
<path d="M166.152 285.502C168.702 285.502 170.769 284.484 170.769 283.229C170.769 281.975 168.702 280.957 166.152 280.957C163.602 280.957 161.535 281.975 161.535 283.229C161.535 284.484 163.602 285.502 166.152 285.502Z" fill="#F3442C" stroke="#263238" stroke-width="0.331232" stroke-linecap="round" stroke-linejoin="round"/>
<path d="M142.78 290.49V297.969C142.78 300.619 147.133 302.752 152.505 302.752C157.878 302.752 162.23 300.613 162.23 297.969V290.49H142.78Z" fill="#263238" stroke="#263238" stroke-width="0.331232" stroke-linecap="round" stroke-linejoin="round"/>
<path d="M152.505 295.273C157.876 295.273 162.23 293.132 162.23 290.49C162.23 287.849 157.876 285.707 152.505 285.707C147.134 285.707 142.78 287.849 142.78 290.49C142.78 293.132 147.134 295.273 152.505 295.273Z" fill="white" stroke="#263238" stroke-width="0.331232" stroke-linecap="round" stroke-linejoin="round"/>
<path d="M152.505 292.762C155.055 292.762 157.122 291.745 157.122 290.49C157.122 289.235 155.055 288.218 152.505 288.218C149.955 288.218 147.888 289.235 147.888 290.49C147.888 291.745 149.955 292.762 152.505 292.762Z" fill="#F3442C" stroke="#263238" stroke-width="0.331232" stroke-linecap="round" stroke-linejoin="round"/>
<path d="M320.506 210.491H0.277832" stroke="#263238" stroke-width="0.331232" stroke-linecap="round" stroke-linejoin="round"/>
<path d="M160.627 93.6191C160.627 93.6191 141.68 99.4686 128.828 102.98C115.977 106.491 110.578 113.513 108.954 116.083C107.331 118.654 89.9683 150.949 89.9683 150.949L120.15 169.2L112.658 209.881H209.808L213.975 163.112L216.406 173.453L253.285 172.704C253.285 172.704 247.449 138.322 243.236 127.093C239.023 115.865 231.537 112.354 221.01 107.67C210.484 102.986 184.495 94.0629 180.063 93.1554C175.631 92.2478 160.627 93.6191 160.627 93.6191Z" fill="#263238" stroke="#263238" stroke-width="0.331232" stroke-linecap="round" stroke-linejoin="round"/>
<path d="M117.342 167.093L127.875 142.993" stroke="#737373" stroke-width="0.331232" stroke-linecap="round" stroke-linejoin="round"/>
<path d="M213.975 163.112L210.523 152.042" stroke="#737373" stroke-width="0.331232" stroke-linecap="round" stroke-linejoin="round"/>
<path d="M162.913 118.892L176.95 148.723L186.251 121.701L162.913 118.892Z" fill="white" stroke="#263238" stroke-width="0.331232" stroke-linecap="round" stroke-linejoin="round"/>
<path d="M169.292 122.191L178.831 147.517L166.516 169.451C166.516 169.451 164.641 151.962 160.554 136.991C156.466 122.019 156.95 100.866 157.811 93.056L169.292 122.191Z" fill="#F3442C" stroke="#263238" stroke-width="0.331232" stroke-linecap="round" stroke-linejoin="round"/>
<path d="M182.389 121.462C182.389 121.462 158.348 187.364 133.545 210.292H152.24C152.24 210.292 178.858 170.604 189.391 147.669C195.802 133.465 199.758 118.275 201.09 102.748L182.389 121.462Z" fill="#F3442C" stroke="#263238" stroke-width="0.331232" stroke-linecap="round" stroke-linejoin="round"/>
<path d="M158.361 82.801C158.361 82.801 156.798 79.1575 154.022 81.0654C151.246 82.9733 152.637 90.7837 154.022 94.2484C155.406 97.7131 158.884 98.0708 158.884 95.9841C158.884 93.8973 158.361 82.801 158.361 82.801Z" fill="white" stroke="#263238" stroke-width="0.331232" stroke-linecap="round" stroke-linejoin="round"/>
<path d="M204.932 87.0209C204.932 87.0209 206.92 83.6092 209.457 85.8616C211.994 88.114 209.576 95.6727 207.748 98.932C205.919 102.191 202.448 102.085 202.707 100.025C202.965 97.9648 204.932 87.0209 204.932 87.0209Z" fill="white" stroke="#263238" stroke-width="0.331232" stroke-linecap="round" stroke-linejoin="round"/>
<path d="M161.137 71.1682C161.137 71.1682 160.295 100.979 160.295 107.425C160.295 113.871 162.283 123.735 170.802 128.763C179.321 133.791 186.926 128.942 190.848 123.735C194.77 118.528 201.222 92.8506 201.222 85.9146C201.222 78.9786 200.381 66.1335 192.253 60.0785C185.86 55.3022 172.207 54.8716 166.463 61.8142C162.104 67.0609 161.137 71.1682 161.137 71.1682Z" fill="#263238" stroke="#263238" stroke-width="0.331232" stroke-linecap="round" stroke-linejoin="round"/>
<path d="M157.838 66.67C157.838 66.67 156.798 96.4809 156.798 102.933C156.798 109.386 159.229 119.243 169.809 124.271C180.388 129.299 189.762 124.444 194.618 119.243C199.474 114.043 207.456 88.3591 207.456 81.4165C207.456 74.4739 206.416 61.6419 196.354 55.5804C188.444 50.8107 171.544 50.3801 164.436 57.3161C159.044 62.5628 157.838 66.67 157.838 66.67Z" fill="white" stroke="#263238" stroke-width="0.331232" stroke-linecap="round" stroke-linejoin="round"/>
<path d="M186.642 100.158C186.642 100.158 192.194 96.8453 197.394 99.2898" stroke="#263238" stroke-width="0.331232" stroke-linecap="round" stroke-linejoin="round"/>
<path d="M164.085 94.255C165.86 94.0941 167.644 94.4309 169.238 95.2278C170.832 96.0247 172.172 97.2501 173.108 98.7664" stroke="#263238" stroke-width="0.331232" stroke-linecap="round" stroke-linejoin="round"/>
<path d="M176.406 92.3472C176.406 92.3472 170.676 88.5314 164.436 90.4393" stroke="#263238" stroke-width="0.993696" stroke-linecap="round" stroke-linejoin="round"/>
<path d="M185.078 93.5661C185.078 93.5661 190.802 89.5913 199.129 94.0828" stroke="#263238" stroke-width="0.993696" stroke-linecap="round" stroke-linejoin="round"/>
<path d="M188.199 101.025C189.952 101.557 191.824 101.557 193.578 101.025" stroke="#263238" stroke-width="0.331232" stroke-linecap="round" stroke-linejoin="round"/>
<path d="M172.24 99.8065C169.982 99.6503 167.844 98.7351 166.172 97.2096" stroke="#263238" stroke-width="0.331232" stroke-linecap="round" stroke-linejoin="round"/>
<path d="M187.158 98.7664C187.158 98.7664 188.549 95.9907 193.405 96.3418" stroke="#263238" stroke-width="0.331232" stroke-linecap="round" stroke-linejoin="round"/>
<path d="M173.803 97.5541C173.803 97.5541 172.935 93.9106 170.16 93.3872" stroke="#263238" stroke-width="0.331232" stroke-linecap="round" stroke-linejoin="round"/>
<path d="M174.499 107.445C174.357 107.869 174.344 108.326 174.462 108.758C174.58 109.189 174.824 109.576 175.162 109.869C176.381 111.088 179.329 113.513 180.541 112.645C181.753 111.777 182.449 112.128 183.853 110.393C184.252 109.946 184.552 109.42 184.731 108.849C184.91 108.278 184.966 107.675 184.893 107.08" stroke="#263238" stroke-width="0.331232" stroke-linecap="round" stroke-linejoin="round"/>
<path d="M165.489 110.048C165.489 110.048 172.081 114.904 177.632 115.772C183.184 116.64 191.339 112.128 191.339 112.128" stroke="#263238" stroke-width="0.331232" stroke-linecap="round" stroke-linejoin="round"/>
<path d="M167.728 109.353C167.728 109.353 164.257 109.697 164.257 110.565" stroke="#263238" stroke-width="0.331232" stroke-linecap="round" stroke-linejoin="round"/>
<path d="M189.762 111.433C189.762 111.433 192.021 111.956 192.021 113.685" stroke="#263238" stroke-width="0.331232" stroke-linecap="round" stroke-linejoin="round"/>
<path d="M158.202 66.1533C158.202 66.1533 164.449 73.7849 182.488 74.6527C200.527 75.5206 206.258 70.4925 206.258 70.4925L205.734 68.2335C205.734 68.2335 206.085 67.1934 207.125 68.5846C208.165 69.9757 208.861 78.4685 209.378 80.7275C209.894 82.9865 207.47 85.06 206.065 85.5834C204.661 86.1067 192.015 91.1348 176.917 88.1869C166.086 86.067 156.447 80.8998 155.579 79.8597C154.711 78.8196 155.235 70.8369 155.235 68.4057C155.235 65.9745 158.355 63.3776 159.567 63.2054L158.202 66.1533Z" fill="#F3442C" stroke="#263238" stroke-width="0.331232" stroke-linecap="round" stroke-linejoin="round"/>
<path d="M208.205 75.812C208.205 75.812 200.05 73.9042 197.447 75.812C194.843 77.7199 197.447 87.0739 199.182 86.5638C200.918 86.0537 204.575 85.8749 208.205 75.812Z" fill="#F3442C" stroke="#263238" stroke-width="0.331232" stroke-linecap="round" stroke-linejoin="round"/>
<path d="M208.205 75.812C208.649 72.3673 209.286 68.9503 210.113 65.577C211.153 61.9401 213.578 68.1805 213.578 74.2553C213.578 80.3301 208.205 75.812 208.205 75.812Z" fill="#F3442C" stroke="#263238" stroke-width="0.331232" stroke-linecap="round" stroke-linejoin="round"/>
<path d="M206.191 75.3086L206.986 79.4755L209.762 76.501L208.775 73.3212L206.191 75.3086Z" fill="#F3442C" stroke="#263238" stroke-width="0.331232" stroke-linecap="round" stroke-linejoin="round"/>
<path d="M214.83 174.658C214.83 174.658 216.076 168.034 219.401 164.125C222.727 160.217 237.288 160.243 243.793 161.356C250.298 162.469 255.3 170.087 254.187 176.321C253.074 182.555 249.477 189.352 247.814 192.121C246.151 194.89 242.408 195.586 236.585 192.538C230.762 189.491 214.83 174.658 214.83 174.658Z" fill="#F3442C" stroke="#263238" stroke-width="0.331232" stroke-linecap="round" stroke-linejoin="round"/>
<path d="M184.495 198.911C184.495 198.911 216.082 198.447 227.079 198.447C238.076 198.447 246.502 193.062 246.502 187.45C246.502 181.839 233.16 172.002 225.442 171.068C217.725 170.134 204.151 179.256 192.922 182.535C181.693 185.814 178.646 183.939 176.307 183.939C173.969 183.939 169.988 183.469 166.245 184.873C162.502 186.278 158.759 192.359 157.122 194.936C155.486 197.513 150.803 200.786 151.505 203.124C152.207 205.463 161.799 208.974 166.245 208.974C169.126 208.889 171.941 208.085 174.433 206.635C174.433 206.635 171.16 213.187 175.135 211.544C179.11 209.901 180.521 205.231 182.157 203.124C183.056 201.789 183.838 200.38 184.495 198.911Z" fill="white" stroke="#263238" stroke-width="0.331232" stroke-linecap="round" stroke-linejoin="round"/>
<path d="M154.791 191.79V196.745C154.791 198.487 158.189 199.905 162.389 199.905C166.589 199.905 169.994 198.467 169.994 196.745V191.809L154.791 191.79Z" fill="#263238" stroke="#263238" stroke-width="0.331232" stroke-linecap="round" stroke-linejoin="round"/>
<path d="M162.389 194.95C166.589 194.95 169.994 193.535 169.994 191.79C169.994 190.044 166.589 188.63 162.389 188.63C158.189 188.63 154.784 190.044 154.784 191.79C154.784 193.535 158.189 194.95 162.389 194.95Z" fill="white" stroke="#263238" stroke-width="0.331232" stroke-linecap="round" stroke-linejoin="round"/>
<path d="M166 191.79C166 192.618 164.383 193.293 162.389 193.293C160.395 193.293 158.779 192.631 158.779 191.79C158.779 190.948 160.395 190.292 162.389 190.292C164.383 190.292 166 190.962 166 191.79Z" fill="#F3442C" stroke="#263238" stroke-width="0.331232" stroke-linecap="round" stroke-linejoin="round"/>
<path d="M184.496 198.911C184.758 196.735 184.758 194.535 184.496 192.359C184.198 190.648 183.474 189.039 182.389 187.682" stroke="#263238" stroke-width="0.331232" stroke-linecap="round" stroke-linejoin="round"/>
<path d="M173.803 189.63C173.803 189.63 171.154 192.816 172.28 195.446C173.406 198.076 176.023 202.382 175.884 203.35C175.744 204.317 174.433 206.662 174.433 206.662" stroke="#263238" stroke-width="0.331232" stroke-linecap="round" stroke-linejoin="round"/>
<path d="M154.678 207.232C154.678 207.232 148.994 203.21 148.994 201.13C148.994 199.05 152.458 191.571 153.704 193.645C154.949 195.718 153.843 198.361 153.571 199.607C153.3 200.852 154.817 202.793 154.817 202.793" fill="white"/>
<path d="M154.678 207.232C154.678 207.232 148.994 203.21 148.994 201.13C148.994 199.05 152.458 191.571 153.704 193.645C154.949 195.718 153.843 198.361 153.571 199.607C153.3 200.852 154.817 202.793 154.817 202.793" stroke="#263238" stroke-width="0.331232" stroke-linecap="round" stroke-linejoin="round"/>
<path d="M161.886 209.034C161.886 209.034 157.308 209.696 155.374 209.034C153.439 208.371 152.32 198.639 153.293 196.977C154.267 195.314 155.645 197.116 156.063 198.911C156.48 200.706 158.143 205.43 159.375 206.397" fill="white"/>
<path d="M161.886 209.034C161.886 209.034 157.308 209.696 155.374 209.034C153.439 208.371 152.32 198.639 153.293 196.977C154.267 195.314 155.645 197.116 156.063 198.911C156.48 200.706 158.143 205.43 159.375 206.397" stroke="#263238" stroke-width="0.331232" stroke-linecap="round" stroke-linejoin="round"/>
<path d="M162.025 204.184C162.025 204.184 156.725 198.083 155.506 200.713C154.287 203.343 159.944 208.477 162.303 209.722C164.661 210.968 167.291 209.06 167.291 209.06" fill="white"/>
<path d="M162.025 204.184C162.025 204.184 156.725 198.083 155.506 200.713C154.287 203.343 159.944 208.477 162.303 209.722C164.661 210.968 167.291 209.06 167.291 209.06" stroke="#263238" stroke-width="0.331232" stroke-linecap="round" stroke-linejoin="round"/>
<path d="M170.199 206.682C170.199 206.682 163.409 197.672 161.468 200.309C159.527 202.945 165.072 209.04 167.43 210.007C169.789 210.975 173.525 206.695 173.525 206.695" fill="white"/>
<path d="M170.199 206.682C170.199 206.682 163.409 197.672 161.468 200.309C159.527 202.945 165.072 209.04 167.43 210.007C169.789 210.975 173.525 206.695 173.525 206.695" stroke="#263238" stroke-width="0.331232" stroke-linecap="round" stroke-linejoin="round"/>
<path d="M160.806 171.187C160.806 171.187 167.828 176.275 168.523 177.328C169.219 178.381 169.226 187.503 169.226 189.087C169.226 190.67 166.775 191.737 165.542 191.015C164.31 190.292 163.436 183.297 163.263 181.19C163.091 179.084 159.951 173.645 159.951 173.645C159.951 173.645 159.229 170.657 160.806 171.187Z" fill="white" stroke="#263238" stroke-width="0.331232" stroke-linecap="round" stroke-linejoin="round"/>
<path d="M76.9244 173.996C76.9244 173.996 74.1156 173.996 73.7645 170.485C73.4133 166.974 79.5544 151.883 81.8399 149.074C84.1254 146.265 98.3352 146.616 104.297 148.902C110.26 151.187 113.247 154.341 115.182 157.852C116.522 160.206 117.247 162.86 117.288 165.569C117.341 167.093 111.326 171.889 101.144 171.531C90.962 171.174 76.9244 173.996 76.9244 173.996Z" fill="#F3442C" stroke="#263238" stroke-width="0.331232" stroke-linecap="round" stroke-linejoin="round"/>
<path d="M105.868 158.905C105.868 158.905 134.824 165.748 142.721 165.748C150.617 165.748 157.812 166.271 159.037 167.504C160.263 168.736 163.602 176.116 164.337 178.03C165.072 179.945 164.158 191.896 163.456 193.267C162.754 194.638 159.773 193.618 159.773 193.618L159.249 191.339C159.249 191.339 158.547 193.797 155.208 192.571C155.208 192.571 152.929 194.499 151.896 194.499H150.253C150.253 194.499 149.902 195.903 147.444 195.903C144.986 195.903 140.601 193.969 139.018 191.339C137.434 188.709 130.068 179.58 129.544 179.759C129.021 179.938 111.658 183.443 101.814 183.443C91.9695 183.443 79.3695 181.362 76.0571 175.751C72.7448 170.14 79.5616 161.356 85.5304 158.024C91.4992 154.692 105.868 158.905 105.868 158.905Z" fill="white" stroke="#263238" stroke-width="0.331232" stroke-linecap="round" stroke-linejoin="round"/>
<path d="M153.611 173.996C153.611 173.996 157.825 179.786 158.527 182.065C159.229 184.344 159.229 191.339 159.229 191.339" stroke="#263238" stroke-width="0.331232" stroke-linecap="round" stroke-linejoin="round"/>
<path d="M146.417 179.256C146.417 179.256 148.875 183.469 150.802 186.629C152.114 188.723 153.58 190.716 155.188 192.591" stroke="#263238" stroke-width="0.331232" stroke-linecap="round" stroke-linejoin="round"/>
<path d="M139.574 183.82C141.338 185.961 143.211 188.011 145.185 189.961C147.47 192.068 150.279 194.526 150.279 194.526" stroke="#263238" stroke-width="0.331232" stroke-linecap="round" stroke-linejoin="round"/>
<path d="M305.435 199.169C291.683 207.079 282.07 199.169 282.07 199.169L280.904 209.524C280.206 215.718 280.244 221.973 281.017 228.159C281.305 230.5 282.439 232.654 284.206 234.216C285.973 235.778 288.251 236.64 290.609 236.638H296.658C299.08 236.636 301.418 235.748 303.232 234.143C305.046 232.537 306.211 230.325 306.509 227.92C307.267 221.749 307.296 215.51 306.595 209.332L305.435 199.169Z" fill="white" stroke="#263238" stroke-width="0.331232" stroke-linecap="round" stroke-linejoin="round"/>
<path d="M293.67 203.528C300.076 203.528 305.27 201.636 305.27 199.302C305.27 196.968 300.076 195.075 293.67 195.075C287.264 195.075 282.07 196.968 282.07 199.302C282.07 201.636 287.264 203.528 293.67 203.528Z" fill="#263238" stroke="#263238" stroke-width="0.331232" stroke-linecap="round" stroke-linejoin="round"/>
<path d="M289.053 201.11C287.141 200.514 285.398 199.474 283.965 198.076C282.93 197.023 281.745 196.13 280.447 195.427C277.638 194.022 271.795 192.856 271.795 192.856C271.795 192.856 276.943 191.684 280.911 192.624C284.879 193.565 287.695 197.533 287.695 197.533C287.695 197.533 286.522 195.897 284.886 190.988C283.249 186.079 283.249 175.546 283.249 175.546C285.75 178.456 287.727 181.778 289.092 185.364C290.226 188.623 291.01 191.994 291.431 195.42C291.431 195.42 290.967 187.238 292.365 182.561C293.763 177.884 297.744 172.042 297.744 172.042C297.744 172.042 297.976 182.33 296.34 187.941C294.703 193.552 294.008 196.129 294.008 196.129C295.031 193.214 296.711 190.574 298.917 188.411C302.428 185.138 310.841 182.336 310.841 182.336C310.841 182.336 306.866 189.584 304.296 191.922C301.726 194.261 299.155 196.831 299.155 196.831C299.155 196.831 301.957 194.757 306.86 194.757C311.762 194.757 317.611 198.03 317.611 198.03C317.611 198.03 305.117 197.957 300.513 200.104C299.591 200.556 298.613 200.883 297.605 201.077L295.068 201.528C293.061 201.885 290.998 201.753 289.053 201.144V201.11Z" fill="#F3442C" stroke="#263238" stroke-width="0.331232" stroke-linecap="round" stroke-linejoin="round"/>
<path d="M288.999 198.851L286.118 196.857" stroke="#263238" stroke-width="0.331232" stroke-linecap="round" stroke-linejoin="round"/>
<path d="M292.1 200.402L288.112 189.769" stroke="#263238" stroke-width="0.331232" stroke-linecap="round" stroke-linejoin="round"/>
<path d="M292.1 200.402L294.313 186.225" stroke="#263238" stroke-width="0.331232" stroke-linecap="round" stroke-linejoin="round"/>
<path d="M292.1 200.402L299.632 191.101" stroke="#263238" stroke-width="0.331232" stroke-linecap="round" stroke-linejoin="round"/>
<path d="M293.67 200.216L301.626 196.639" stroke="#263238" stroke-width="0.331232" stroke-linecap="round" stroke-linejoin="round"/>
<path d="M285.919 217.281C285.919 223.495 284.952 228.543 283.759 228.543C282.567 228.543 281.606 223.508 281.606 217.281C281.606 211.054 282.574 206.019 283.759 206.019C284.945 206.019 285.919 211.041 285.919 217.281Z" stroke="#F3442C" stroke-width="0.331232" stroke-linecap="round" stroke-linejoin="round"/>
<path d="M293.577 233.777C296.222 233.777 298.367 227.773 298.367 220.368C298.367 212.963 296.222 206.96 293.577 206.96C290.932 206.96 288.788 212.963 288.788 220.368C288.788 227.773 290.932 233.777 293.577 233.777Z" stroke="#F3442C" stroke-width="0.331232" stroke-linecap="round" stroke-linejoin="round"/>
<path d="M302.918 228.51C303.843 228.51 304.594 223.364 304.594 217.016C304.594 210.668 303.843 205.522 302.918 205.522C301.992 205.522 301.242 210.668 301.242 217.016C301.242 223.364 301.992 228.51 302.918 228.51Z" stroke="#F3442C" stroke-width="0.331232" stroke-linecap="round" stroke-linejoin="round"/>
</svg>
